<svg version="1.1" id="Layer_1" xmlns="http://www.w3.org/2000/svg" xmlns:xlink="http://www.w3.org/1999/xlink" x="0px" y="0px"
	 width="100%" viewBox="0 0 500 500" enable-background="new 0 0 500 500" xml:space="preserve">
<path fill="none" opacity="1.000000" stroke="#000000" stroke-linecap="round" stroke-linejoin="round" stroke-width="3.000000"
	d="
M427.500000,321.500000 
	C428.305359,309.500000 428.338867,297.500092 427.501160,285.499908 
	C427.326691,283.000458 427.098236,280.502411 427.010559,277.999634 
	C426.123596,252.673965 424.985962,227.303650 426.212616,202.010315 
	C427.482697,175.821411 426.476410,149.664642 426.967621,123.499390 
	C427.164307,113.023254 424.489014,109.663681 413.992889,109.143814 
	C402.845337,108.591682 391.663544,106.956665 380.507812,108.077881 
	C362.864563,109.851105 345.155121,110.830994 327.512329,109.790833 
	C311.665527,108.856560 295.812103,108.789398 279.999420,108.752808 
	C262.176941,108.711578 244.333176,108.824074 226.499786,108.975060 
	C212.000824,109.097816 197.473602,108.452942 183.007294,109.151070 
	C167.998306,109.875389 152.975708,110.552414 138.007828,109.836319 
	C120.497276,108.998566 103.003761,109.119606 85.499931,109.010666 
	C77.280312,108.959503 73.584312,112.316704 74.087730,120.494598 
	C75.093071,136.826401 74.921356,153.160889 75.016457,169.499908 
	C75.065079,177.852829 73.316879,186.120773 73.992264,194.500626 
	C76.514336,225.793335 76.202728,257.154846 75.860947,288.498474 
	C75.770264,296.814728 74.378601,305.187286 75.116554,313.489655 
	C76.020981,323.665009 74.425003,333.859955 75.945381,344.008179 
	C76.628410,348.567322 79.793701,351.992462 84.499809,351.966248 
	C93.000473,351.918884 101.502373,351.454620 109.999443,351.549591 
	C122.834908,351.692963 135.668747,352.503021 148.499527,352.423798 
	C169.503372,352.294189 190.474136,350.722870 211.500595,350.942993 
	C235.164673,351.190735 258.833344,351.000000 282.500000,351.000000 
	C302.166656,351.000000 321.837524,350.751801 341.498596,351.083374 
	C355.672455,351.322388 369.827454,352.580841 384.001953,352.918182 
	C394.492035,353.167786 405.020599,353.011597 415.493195,352.386108 
	C423.263885,351.921967 427.275574,347.883728 427.857910,339.989532 
	C428.296387,334.045654 428.590454,327.974335 427.500000,322.000000 
"/>
<path fill="none" opacity="1.000000" stroke="#000000" stroke-linecap="round" stroke-linejoin="round" stroke-width="3.000000"
	d="
M427.000000,321.500000 
	C424.897949,320.720032 422.795349,320.028259 420.500275,319.984985 
	C404.333099,319.679962 388.167633,319.272278 371.999786,319.014313 
	C347.667297,318.626099 323.326721,317.830109 299.001984,318.150177 
	C277.325928,318.435364 255.670761,320.105713 233.997864,320.944885 
	C225.998535,321.254608 217.963425,320.263916 209.998886,320.224640 
	C193.648819,320.143982 177.314789,318.359528 161.007050,319.146210 
	C141.998062,320.063263 122.995277,319.590302 104.004791,320.159851 
	C98.022423,320.339264 92.011566,320.826538 86.003235,321.077454 
	C82.723328,321.214386 79.779617,319.260315 76.500000,320.000000 
"/>
<path fill="none" opacity="1.000000" stroke="#000000" stroke-linecap="round" stroke-linejoin="round" stroke-width="4.000000"
	d="
M185.500000,197.500000 
	C186.478394,209.040054 191.279938,217.684311 202.968613,221.593842 
	C206.155121,222.659637 209.260071,222.994141 212.500000,222.995224 
	C238.166672,223.003830 263.833374,223.021530 289.500000,222.990921 
	C302.299866,222.975647 310.089539,217.618073 314.541412,206.516617 
	C320.068878,192.733109 311.525299,178.709564 300.457153,174.615814 
	C297.207825,173.414017 296.070282,171.868210 295.362244,168.529221 
	C293.273651,158.679886 284.713470,150.539490 273.998352,149.517212 
	C272.677032,149.391144 271.321289,149.384293 270.002258,149.521561 
	C265.946777,149.943619 262.638641,148.988907 259.418091,146.091049 
	C252.858536,140.188797 244.883362,137.031876 236.004471,137.573334 
	C219.238449,138.595825 205.449326,149.581802 202.428284,166.987549 
	C201.703262,171.164825 202.025314,175.993591 196.067673,177.731918 
	C193.605865,178.450226 191.477692,181.351196 190.000000,184.000000 
"/>
<path fill="none" opacity="1.000000" stroke="#000000" stroke-linecap="round" stroke-linejoin="round" stroke-width="3.000000"
	d="
M217.000000,352.000000 
	C216.942322,358.181580 217.862228,364.372131 216.056473,370.516602 
	C214.547455,375.651337 211.638092,379.403351 207.019821,382.034790 
	C204.738983,383.334381 202.464310,384.787628 200.579636,386.583557 
	C199.530594,387.583160 198.357605,389.349182 199.088211,390.959991 
	C199.725250,392.364502 201.115173,393.017273 202.998154,393.068176 
	C222.995850,393.608429 243.003174,394.738770 262.994568,393.874664 
	C275.994598,393.312744 288.958344,391.965759 301.999329,391.886780 
	C304.420166,391.872101 307.441376,391.807678 309.245148,389.049377 
	C307.603302,385.215271 304.049438,383.483063 300.933258,382.156830 
	C292.888153,378.732758 291.373169,371.721771 290.046265,364.491516 
	C289.290222,360.371826 288.999969,356.166656 288.499969,352.000000 
"/>
<path fill="none" opacity="1.000000" stroke="#000000" stroke-linecap="round" stroke-linejoin="round" stroke-width="3.000000"
	d="
M267.500000,211.000000 
	C272.912720,209.588074 274.503754,204.640396 275.806946,200.440109 
	C278.171814,192.818054 278.642212,184.867493 276.035645,176.988205 
	C274.240448,171.561600 271.454529,169.694550 265.313629,170.525208 
	C265.875214,184.004532 266.437622,197.502258 267.000000,211.000000 
"/>
<path fill="none" opacity="1.000000" stroke="#000000" stroke-linecap="round" stroke-linejoin="round" stroke-width="4.000000"
	d="
M244.500000,145.500000 
	C238.585663,144.415726 232.669922,144.235260 227.014603,146.535889 
	C218.737793,149.902969 212.558136,155.344955 210.500000,164.500000 
"/>
<path fill="none" opacity="1.000000" stroke="#000000" stroke-linecap="round" stroke-linejoin="round" stroke-width="2.000000"
	d="
M234.999985,169.000000 
	C233.833328,171.333328 232.611389,173.640930 231.511169,176.005203 
	C228.992081,181.418549 227.920776,186.449448 230.745926,192.616394 
	C233.714447,199.096359 234.666656,206.500000 236.499985,213.500000 
"/>
<path fill="none" opacity="1.000000" stroke="#000000" stroke-linecap="round" stroke-linejoin="round" stroke-width="3.000000"
	d="
M224.500000,169.500000 
	C225.363083,176.166672 225.213089,182.828018 224.513046,189.501373 
	C223.674469,197.495575 223.640793,205.500000 224.500000,213.500000 
"/>
<path fill="none" opacity="1.000000" stroke="#000000" stroke-linecap="round" stroke-linejoin="round" stroke-width="3.000000"
	d="
M244.500000,170.000000 
	C243.330627,170.164642 242.882996,170.882004 243.002045,171.999786 
	C244.206497,183.307755 243.974014,194.657333 244.011047,205.999969 
	C244.017044,207.836899 244.169312,209.673370 244.269257,211.841782 
	C251.649521,208.561661 253.810760,201.912216 254.746368,195.463211 
	C255.591370,189.638779 255.844421,183.425797 254.011383,177.496475 
	C252.356995,172.145065 250.069839,170.190460 245.000000,170.000000 
"/>
<path fill="none" opacity="1.000000" stroke="#000000" stroke-linecap="round" stroke-linejoin="round" stroke-width="3.000000"
	d="
M100.000000,123.500000 
	C96.247253,124.760063 92.260788,123.332420 89.256630,124.119827 
	C88.352020,142.333511 89.751900,160.149246 88.169861,178.015045 
	C87.365753,187.095749 88.248032,196.336929 88.634529,205.494324 
	C88.672356,206.390579 88.927307,207.504822 88.974945,208.501190 
	C90.392525,238.154556 89.941948,267.830231 89.999580,297.500000 
	C90.002853,299.183319 90.000000,300.866669 90.000000,302.859833 
	C96.322105,303.059540 102.121452,303.218719 108.001572,303.161713 
	C128.497513,302.962769 149.006439,301.615692 169.498734,303.018463 
	C221.464767,306.575745 273.506500,305.165344 325.496918,304.673309 
	C351.324921,304.428925 377.170471,304.573212 402.998199,303.927856 
	C406.218903,303.847382 409.289856,305.159180 413.000000,305.065674 
	C413.000000,302.844055 413.000000,301.172028 413.000000,299.500000 
	C413.000000,270.833344 413.120850,242.165939 412.946930,213.500320 
	C412.865021,199.999878 411.555847,186.522552 411.978912,172.999344 
	C412.260529,163.996796 414.085388,154.966919 412.837921,146.022614 
	C411.931366,139.522659 413.042175,132.780914 410.464355,125.994064 
	C396.483063,126.473839 382.544220,124.880356 368.500183,124.860489 
	C342.468994,124.823662 316.492859,127.658951 290.505707,126.822807 
	C256.838287,125.739571 223.176636,124.507713 189.503281,125.167618 
	C176.649765,125.419510 163.829758,125.085617 151.000885,124.928040 
	C134.163956,124.721237 117.333336,124.000000 100.500000,123.500000 
"/>
</svg>
